<?xml version="1.0" encoding="UTF-8"?>
<svg id="Layer_1" xmlns="http://www.w3.org/2000/svg" version="1.1" viewBox="0 0 444 444">
  <!-- Generator: Adobe Illustrator 29.0.0, SVG Export Plug-In . SVG Version: 2.1.0 Build 186)  -->
  <defs>
    <style>
      .st0 {
        fill: #fff;
      }

      .st1 {
        fill: #5d0de6;
      }
    </style>
  </defs>
  <circle class="st1" cx="222" cy="222" r="222"/>
  <path class="st0" d="M381.57,218.43L230.07,66.93c-2.08-2.08-4.85-3.04-7.57-2.91-2.72-.14-5.49.83-7.57,2.91L66.93,214.93c-3.9,3.91-3.9,10.24,0,14.14,1.95,1.95,4.51,2.93,7.07,2.93s5.12-.98,7.07-2.93L212,98.14v271.86c0,5.52,4.48,10,10,10s10-4.48,10-10V97.14l135.43,135.43c1.95,1.95,4.51,2.93,7.07,2.93s5.12-.98,7.07-2.93c3.9-3.91,3.9-10.24,0-14.14Z"/>
</svg>