<?xml version="1.0" encoding="UTF-8"?>
<svg id="Layer_1" xmlns="http://www.w3.org/2000/svg" version="1.1" xmlns:xlink="http://www.w3.org/1999/xlink" viewBox="0 0 400 400">
  <!-- Generator: Adobe Illustrator 29.0.0, SVG Export Plug-In . SVG Version: 2.1.0 Build 186)  -->
  <defs>
    <style>
      .st0 {
        fill: #b6e60d;
      }

      .st1 {
        fill: none;
      }

      .st2 {
        clip-path: url(#clippath);
      }
    </style>
    <clipPath id="clippath">
      <rect class="st1" x="3" y="3" width="394" height="394"/>
    </clipPath>
  </defs>
  <g class="st2">
    <g id="Group_130">
      <path id="Path_96" class="st0" d="M86.22,253.34v-4.45l3.1-5.56,103.56-103.56c4.2-3.24,10.05-3.24,14.24,0l103.54,103.55c4.3,4.65,4.02,11.9-.62,16.2-4.31,3.99-10.93,4.08-15.35.21l-94.86-94.38-94.54,94.38c-4.88,4.23-12.26,3.7-16.48-1.17-1.3-1.5-2.19-3.3-2.6-5.23"/>
      <path id="Path_97" class="st0" d="M200,397C91.2,397,3,308.8,3,200S91.2,3,200,3s197,88.2,197,197c-.13,108.75-88.25,196.87-197,197M200,21.9C101.64,21.9,21.9,101.64,21.9,200s79.74,178.1,178.1,178.1,178.1-79.74,178.1-178.1h0c-.11-98.31-79.78-177.98-178.1-178.1"/>
    </g>
  </g>
</svg>