<?xml version="1.0" encoding="UTF-8"?>
<svg id="Layer_1" xmlns="http://www.w3.org/2000/svg" version="1.1" xmlns:xlink="http://www.w3.org/1999/xlink" viewBox="0 0 65.2 78.1">
  <!-- Generator: Adobe Illustrator 29.0.0, SVG Export Plug-In . SVG Version: 2.1.0 Build 186)  -->
  <defs>
    <style>
      .st0 {
        fill: #b7d433;
      }

      .st1 {
        fill: none;
      }

      .st2 {
        clip-path: url(#clippath);
      }
    </style>
    <clipPath id="clippath">
      <rect class="st1" width="65.2" height="78.1"/>
    </clipPath>
  </defs>
  <g class="st2">
    <g id="Group_132">
      <path id="Path_98" class="st0" d="M31.22,78.05c-1.23-.2-2.42-.58-3.55-1.11-3.41-1.67-5.8-4.88-6.41-8.63l-17.26-.09c-2.67-.49-4.43-3.06-3.93-5.73.05-.3.14-.59.24-.87.59-1.6,2.2-2.51,3.32-3.7,10.81-11.53,2.65-23.62,8.45-35.48,2.87-5.62,7.86-9.86,13.87-11.78.21-1.89-.13-3.79.29-5.65.85-3.51,4.39-5.68,7.9-4.83,1.33.32,2.53,1.05,3.42,2.09,2.12,2.52,1.46,5.35,1.67,8.39,8.61,2.68,15.52,10.78,16.13,19.89.7,10.53-1.97,18.71,6.19,27.37,1.12,1.19,2.72,2.09,3.32,3.7.97,2.53-.29,5.37-2.82,6.35-.28.11-.57.19-.87.24l-17.26.09c-.7,4.23-3.65,7.75-7.7,9.17-.74.24-1.49.43-2.26.57-.92.07-1.84.07-2.75,0M35.81,9.9v-4.19c-.11-.29-.24-.56-.39-.83-.88-1.56-2.86-2.1-4.42-1.22-.51.29-.93.71-1.22,1.22-.15.27-.28.54-.39.83v4.19h6.42ZM31.65,13c-6.88.39-13.06,4.32-16.35,10.37-3.95,7.45-1.35,15.4-2.62,23.31-.85,4.93-3.09,9.52-6.45,13.23-.95.82-1.86,1.7-2.71,2.63-.77,1.41.18,2.43,1.63,2.55,5.46.48,12.12-.11,17.71-.1,6.52,0,13.06,0,19.57,0,5.56,0,12.19.58,17.61.1,1.77-.16,2.56-1.63,1.3-2.99-2-2.15-3.62-3.38-5.27-6.03-5.46-8.77-3.28-15.43-3.91-24.91-.84-10.59-9.9-18.61-20.51-18.17M40.55,68.3h-15.9c.86,4.39,5.11,7.26,9.5,6.4,3.24-.63,5.77-3.16,6.4-6.4"/>
    </g>
  </g>
</svg>