<?xml version="1.0" encoding="UTF-8"?>
<svg id="Layer_1" xmlns="http://www.w3.org/2000/svg" version="1.1" xmlns:xlink="http://www.w3.org/1999/xlink" viewBox="0 0 354.71 424.79">
  <!-- Generator: Adobe Illustrator 29.0.0, SVG Export Plug-In . SVG Version: 2.1.0 Build 186)  -->
  <defs>
    <style>
      .st0 {
        fill: none;
      }

      .st1 {
        fill: #5d0de6;
      }

      .st2 {
        clip-path: url(#clippath);
      }
    </style>
    <clipPath id="clippath">
      <rect class="st0" x=".05" width="354.61" height="424.79"/>
    </clipPath>
  </defs>
  <g class="st2">
    <g id="Group_132">
      <path id="Path_98" class="st1" d="M169.87,424.5c-6.68-1.11-13.17-3.15-19.3-6.04-18.54-9.06-31.54-26.55-34.85-46.92l-93.88-.48c-14.51-2.69-24.09-16.63-21.39-31.14.3-1.61.74-3.19,1.33-4.71,3.19-8.7,11.97-13.65,18.04-20.12,58.77-62.72,14.39-128.46,45.98-192.97,15.6-30.55,42.75-53.62,75.42-64.08,1.14-10.27-.71-20.61,1.59-30.75,4.62-19.11,23.85-30.87,42.97-26.25,7.23,1.75,13.74,5.72,18.6,11.35,11.55,13.7,7.93,29.1,9.1,45.65,46.83,14.57,84.42,58.63,87.73,108.18,3.81,57.25-10.71,101.74,33.67,148.84,6.12,6.49,14.82,11.36,18.04,20.12,5.29,13.77-1.58,29.23-15.35,34.52-1.53.59-3.1,1.03-4.71,1.33l-93.88.48c-3.8,23.03-19.86,42.15-41.88,49.87-4.02,1.32-8.13,2.35-12.29,3.08-4.98.39-9.98.39-14.96,0M194.82,53.84v-22.79c-.6-1.55-1.31-3.06-2.13-4.51-4.81-8.47-15.58-11.43-24.04-6.62-2.76,1.57-5.05,3.86-6.62,6.62-.82,1.45-1.53,2.96-2.13,4.51v22.79h34.92ZM172.2,70.71c-37.4,2.14-71.04,23.47-88.93,56.39-21.46,40.51-7.32,83.76-14.23,126.76-4.64,26.83-16.8,51.79-35.08,71.98-5.19,4.48-10.11,9.26-14.73,14.33-4.21,7.69.98,13.19,8.87,13.89,29.69,2.61,65.94-.59,96.33-.54,35.45.02,71.02.02,106.42.02,30.22-.04,66.27,3.15,95.78.54,9.62-.85,13.93-8.87,7.07-16.24-10.88-11.69-19.68-18.37-28.65-32.79-29.7-47.72-17.83-83.92-21.28-135.49-4.58-57.58-53.86-101.23-111.57-98.85M220.61,371.48h-86.48c4.66,23.88,27.8,39.46,51.68,34.8,17.6-3.44,31.36-17.2,34.8-34.8"/>
    </g>
  </g>
</svg>