<?xml version="1.0" encoding="UTF-8"?>
<svg id="Layer_1" xmlns="http://www.w3.org/2000/svg" version="1.1" viewBox="0 0 416 416">
  <!-- Generator: Adobe Illustrator 29.0.0, SVG Export Plug-In . SVG Version: 2.1.0 Build 186)  -->
  <defs>
    <style>
      .st0 {
        fill: #5d0de6;
      }
    </style>
  </defs>
  <path class="st0" d="M208,0C93.12,0,0,93.12,0,208s93.12,208,208,208,208-93.12,208-208S322.88,0,208,0ZM266.14,121.43h-28.21c-3.57,0-9.8,1.9-12.71,4.06-3.1,2.3-6.35,8.64-6.35,12.44v35.29h44.99l-5.34,46.21h-39.65v118.83h-47.78v-118.07l-.76-.76h-39.4v-46.21h40.16c.91-26.21-4.88-54.94,13.71-76.44,9.55-11.04,24.67-17.4,39.15-18.52,5.86-.46,13.86-.23,19.82,0,.07,0,.57.5,1.23.53,6.64.29,13.22.45,19.87.99l1.27.76v40.88Z"/>
</svg>