<?xml version="1.0" encoding="UTF-8"?>
<svg id="Layer_1" xmlns="http://www.w3.org/2000/svg" version="1.1" viewBox="0 0 416 416">
  <!-- Generator: Adobe Illustrator 29.0.0, SVG Export Plug-In . SVG Version: 2.1.0 Build 186)  -->
  <defs>
    <style>
      .st0 {
        fill: #b6e60d;
      }
    </style>
  </defs>
  <path class="st0" d="M275.43,114.88l-126.98.13c-18.08,2.12-32.45,16.78-34.52,34.82l-.05,126.6c1.96,18.69,17.02,33.71,35.8,35.39l125.75-.02c18.74-1.89,33.66-17.08,35.39-35.8l-.02-125.75c-1.97-18.53-16.73-33.47-35.36-35.36ZM229.8,269.86c-47.19,14.13-89.86-31.12-72.81-77.44,14.69-39.92,67.1-51.15,97.26-20.99s17.83,85.77-24.45,98.42ZM278.68,163.88c-21.16,2.32-22.63-28.83-2.65-29.46,18.72-.6,20.13,27.55,2.65,29.46Z"/>
  <path class="st0" d="M207.62,174.19c-27.27,2.67-42.89,33.57-30.19,57.65,16.14,30.62,62.44,26.55,72.48-6.59,8.45-27.9-13.48-53.89-42.28-51.06Z"/>
  <path class="st0" d="M208,0C93.12,0,0,93.12,0,208s93.12,208,208,208,208-93.12,208-208S322.88,0,208,0ZM330.68,275.97c-2.02,29.79-25.85,53.77-55.7,55.7l-124.83.02c-24.98-1.5-46.95-18.76-53.8-42.82l-2.35-11.75v-127.59c2.41-28.45,25.97-52.33,54.55-54.55h127.59l11.75,2.35c24.05,6.85,41.32,28.82,42.82,53.8l-.02,124.83Z"/>
</svg>