<?xml version="1.0" encoding="UTF-8"?>
<svg id="Layer_1" xmlns="http://www.w3.org/2000/svg" version="1.1" viewBox="0 0 416 416">
  <!-- Generator: Adobe Illustrator 29.0.0, SVG Export Plug-In . SVG Version: 2.1.0 Build 186)  -->
  <defs>
    <style>
      .st0 {
        fill: #b6e60d;
      }
    </style>
  </defs>
  <path class="st0" d="M208,12c26.47,0,52.13,5.18,76.29,15.4,23.34,9.87,44.3,24.01,62.3,42.01,18,18,32.14,38.97,42.01,62.3,10.22,24.16,15.4,49.82,15.4,76.29s-5.18,52.13-15.4,76.29c-9.87,23.34-24.01,44.3-42.01,62.3-18,18-38.97,32.14-62.3,42.01-24.16,10.22-49.82,15.4-76.29,15.4s-52.13-5.18-76.29-15.4c-23.34-9.87-44.3-24.01-62.3-42.01-18-18-32.14-38.97-42.01-62.3-10.22-24.16-15.4-49.82-15.4-76.29s5.18-52.13,15.4-76.29c9.87-23.34,24.01-44.3,42.01-62.3,18-18,38.97-32.14,62.3-42.01,24.16-10.22,49.82-15.4,76.29-15.4M208,0C93.12,0,0,93.12,0,208s93.12,208,208,208,208-93.12,208-208S322.88,0,208,0h0Z"/>
  <g>
    <path class="st0" d="M307.22,306.92h-41.22l.02-71.07c-.79-16.22-4.88-29.62-24.04-28.37-16.66,1.09-21.26,14.23-22.07,28.85l.02,71.07h-41.22v-132.88h39.04l.73.73v17.7l6.53-8.75c13.32-13.15,34.07-15.32,51.55-10.3,21.81,6.27,28.26,25.17,30.18,45.96l.49,87.05Z"/>
    <rect class="st0" x="111.78" y="174.53" width="41.22" height="132.88"/>
    <path class="st0" d="M130.11,108.72c31.7-2.94,35.08,45.47,4.22,47.86-31.1,2.4-35.32-44.97-4.22-47.86Z"/>
  </g>
</svg>