<?xml version="1.0" encoding="UTF-8"?>
<svg id="Layer_1" xmlns="http://www.w3.org/2000/svg" version="1.1" viewBox="0 0 416 416">
  <!-- Generator: Adobe Illustrator 29.0.0, SVG Export Plug-In . SVG Version: 2.1.0 Build 186)  -->
  <defs>
    <style>
      .st0 {
        fill: #5d0de6;
      }
    </style>
  </defs>
  <path class="st0" d="M208,0C93.12,0,0,93.12,0,208s93.12,208,208,208,208-93.12,208-208S322.88,0,208,0ZM173.55,276.29c-12.85,22.96-46.61,21.84-58.11-1.69-9.74-19.93,3.18-44.8,25.31-47.32,26.98-3.07,46.18,25.1,32.8,49.01ZM256.37,293h-39.01c1.26-20.57-4.03-41.35-14.99-58.72-18.04-28.62-51.33-47.29-85.57-46.14-.71.02-3.81,1.14-3.81-.26v-38.25c13.64-1.37,28.41.66,41.65,4.2,61.6,16.45,104.82,75.19,101.72,139.17ZM333.91,291.25c-.09.74-.06,1.3-.79,1.75h-38.25c.39-3.64.6-7.24.53-10.91-.14-6.82-1.12-14.85-2.13-21.68-13.01-87.73-91.25-153.66-180.27-150.29v-38.5c4.44-.56,8.95-.66,13.45-.53,103.06,3,190.84,82.65,205.32,184.26,1.44,10.09,3.3,26.01,2.14,35.91Z"/>
</svg>