<?xml version="1.0" encoding="UTF-8"?>
<svg id="Layer_1" xmlns="http://www.w3.org/2000/svg" version="1.1" viewBox="0 0 416 416">
  <!-- Generator: Adobe Illustrator 29.0.0, SVG Export Plug-In . SVG Version: 2.1.0 Build 186)  -->
  <defs>
    <style>
      .st0 {
        fill: #5d0de6;
      }
    </style>
  </defs>
  <path class="st0" d="M208,12c26.47,0,52.13,5.18,76.29,15.4,23.34,9.87,44.3,24,62.3,42.01,18,18,32.14,38.97,42.01,62.3,10.22,24.16,15.4,49.82,15.4,76.29s-5.18,52.13-15.4,76.29c-9.87,23.34-24,44.3-42.01,62.3-18,18-38.97,32.14-62.3,42.01-24.16,10.22-49.82,15.4-76.29,15.4s-52.13-5.18-76.29-15.4c-23.34-9.87-44.3-24-62.3-42.01-18-18-32.14-38.97-42.01-62.3-10.22-24.16-15.4-49.82-15.4-76.29s5.18-52.13,15.4-76.29c9.87-23.34,24.01-44.3,42.01-62.3,18-18,38.97-32.14,62.3-42.01,24.16-10.22,49.82-15.4,76.29-15.4M208,0C93.12,0,0,93.12,0,208s93.12,208,208,208,208-93.12,208-208S322.88,0,208,0h0Z"/>
  <g>
    <path class="st0" d="M294.87,293c.39-3.64.6-7.24.53-10.91-.14-6.82-1.12-14.85-2.13-21.68-13.01-87.73-91.25-153.66-180.27-150.29v-38.5c4.44-.56,8.95-.66,13.45-.53,103.06,3,190.84,82.65,205.32,184.26,1.44,10.1,3.3,26.01,2.14,35.91-.09.74-.06,1.3-.79,1.75h-38.25Z"/>
    <path class="st0" d="M256.37,293h-39.01c1.26-20.57-4.03-41.35-14.99-58.72-18.04-28.62-51.33-47.29-85.57-46.14-.71.02-3.81,1.14-3.81-.26v-38.25c13.64-1.37,28.41.66,41.65,4.2,61.6,16.45,104.82,75.19,101.72,139.17Z"/>
    <path class="st0" d="M140.75,227.28c26.98-3.07,46.18,25.1,32.8,49.01-12.85,22.96-46.61,21.84-58.11-1.69-9.74-19.93,3.18-44.8,25.31-47.32Z"/>
  </g>
</svg>