<?xml version="1.0" encoding="UTF-8"?>
<svg id="Layer_1" xmlns="http://www.w3.org/2000/svg" version="1.1" viewBox="0 0 416 416">
  <!-- Generator: Adobe Illustrator 29.0.0, SVG Export Plug-In . SVG Version: 2.1.0 Build 186)  -->
  <defs>
    <style>
      .st0 {
        fill: #b6e60d;
      }
    </style>
  </defs>
  <path class="st0" d="M208,12c26.47,0,52.13,5.18,76.29,15.4,23.34,9.87,44.3,24.01,62.3,42.01,18,18,32.14,38.97,42.01,62.3,10.22,24.16,15.4,49.82,15.4,76.29s-5.18,52.13-15.4,76.29c-9.87,23.34-24.01,44.3-42.01,62.3-18,18-38.97,32.14-62.3,42.01-24.16,10.22-49.82,15.4-76.29,15.4s-52.13-5.18-76.29-15.4c-23.34-9.87-44.3-24.01-62.3-42.01-18-18-32.14-38.97-42.01-62.3-10.22-24.16-15.4-49.82-15.4-76.29s5.18-52.13,15.4-76.29c9.87-23.34,24.01-44.3,42.01-62.3,18-18,38.97-32.14,62.3-42.01,24.16-10.22,49.82-15.4,76.29-15.4M208,0C93.12,0,0,93.12,0,208s93.12,208,208,208,208-93.12,208-208S322.88,0,208,0h0Z"/>
  <path class="st0" d="M218.31,78.19c15.56,1.37,30.99,4.12,45.43,10.55,29.65,13.19,50.31,39.89,57.95,71.22l-21.85,5.65c-8.39-31.23-29.45-53.81-61.26-61.34-33.93-8.04-76.5-2.27-99.28,26.36-31.11,39.1-30.32,128.22,7.82,162.87,29.78,27.05,91.45,28.97,122.09,2.51,24.16-20.87,27.04-55.71-1.52-73.94-1.04-.17-.61.13-.81.68-1.1,3.03-1.53,8.15-2.52,11.68-8.67,31.12-34.99,46.96-66.93,41.18-49.19-8.91-52.63-69.08-4.96-83.69,12.37-3.79,27.94-4.3,40.77-3.29,3.62.28,7.29,1.06,10.89,1.51-1.78-15.65-11.18-26.46-27.16-28.3-13.81-1.59-27.49,2.02-35.97,13.55l-18.93-12.11c14.68-23.65,46.96-29.94,72.06-20.63,23.08,8.55,32.62,30.79,34.06,54.08,39.84,15.74,55.2,61.34,32.18,98.03-27.63,44.03-92.47,51.77-137.93,34.56-59.67-22.58-74.07-92.43-66.16-149.49,8.26-59.63,44.3-98.39,105.8-101.64h16.21ZM244.6,213.5c-16.36-2.64-43.67-5.45-56.92,6.55-8.39,7.6-8.33,20.57.79,27.55,9.51,7.27,26.66,7.82,37.28,2.92,13.31-6.13,18.69-23.33,18.85-37.02Z"/>
</svg>