<?xml version="1.0" encoding="UTF-8"?>
<svg id="Layer_1" xmlns="http://www.w3.org/2000/svg" version="1.1" viewBox="0 0 416 416">
  <!-- Generator: Adobe Illustrator 29.0.0, SVG Export Plug-In . SVG Version: 2.1.0 Build 186)  -->
  <defs>
    <style>
      .st0 {
        fill: #5d0de6;
      }
    </style>
  </defs>
  <path class="st0" d="M208,12c26.46,0,52.13,5.18,76.29,15.4,23.34,9.87,44.3,24,62.3,42.01,18,18,32.14,38.97,42.01,62.3,10.22,24.16,15.4,49.82,15.4,76.29s-5.18,52.13-15.4,76.29c-9.87,23.34-24,44.3-42.01,62.3-18,18-38.97,32.14-62.3,42.01-24.16,10.22-49.82,15.4-76.29,15.4s-52.13-5.18-76.29-15.4c-23.34-9.87-44.3-24-62.3-42.01-18-18-32.14-38.97-42.01-62.3-10.22-24.16-15.4-49.82-15.4-76.29s5.18-52.13,15.4-76.29c9.87-23.34,24-44.3,42.01-62.3,18-18,38.97-32.14,62.3-42.01,24.16-10.22,49.82-15.4,76.29-15.4M208,0C93.12,0,0,93.12,0,208s93.12,208,208,208,208-93.12,208-208S322.88,0,208,0h0Z"/>
  <path class="st0" d="M256.51,77.24c-.07,33.31,26.37,62.32,59.56,65.43,2.25.21,5.2-.7,6.89.77v41.66c-16.98.59-33.72-3.88-48.91-11.16l-17.54-10.82c.11,25.47-.15,50.97-.03,76.45.13,28.2.54,48.22-19.14,70.79-52.1,59.74-151.51,18.44-143.91-60.58,4.42-45.99,48.63-79.19,94.06-71.83v42.94c-9.27-2-17.32-2.4-26.34,1.01-47.69,18.03-19.54,91.31,28.73,71.67,27.35-11.13,23.87-37.64,24.21-62.18.72-51.36-.59-102.79-.02-154.15h42.43Z"/>
</svg>