<?xml version="1.0" encoding="UTF-8"?>
<svg id="Layer_1" xmlns="http://www.w3.org/2000/svg" version="1.1" viewBox="0 0 416 416">
  <!-- Generator: Adobe Illustrator 29.0.0, SVG Export Plug-In . SVG Version: 2.1.0 Build 186)  -->
  <defs>
    <style>
      .st0 {
        fill: #5d0de6;
      }
    </style>
  </defs>
  <path class="st0" d="M208,12c26.47,0,52.13,5.18,76.29,15.4,23.34,9.87,44.3,24,62.3,42.01,18,18,32.14,38.97,42.01,62.3,10.22,24.16,15.4,49.82,15.4,76.29s-5.18,52.13-15.4,76.29c-9.87,23.34-24.01,44.3-42.01,62.3-18,18-38.97,32.14-62.3,42.01-24.16,10.22-49.82,15.4-76.29,15.4s-52.13-5.18-76.29-15.4c-23.34-9.87-44.3-24-62.3-42.01-18-18-32.14-38.97-42.01-62.3-10.22-24.16-15.4-49.82-15.4-76.29s5.18-52.13,15.4-76.29c9.87-23.34,24.01-44.3,42.01-62.3,18-18,38.97-32.14,62.3-42.01,24.16-10.22,49.82-15.4,76.29-15.4M208,0C93.12,0,0,93.12,0,208s93.12,208,208,208,208-93.12,208-208S322.88,0,208,0h0Z"/>
  <g>
    <path class="st0" d="M79.68,336.87l17.75-65.74c-49.71-89.14,16.51-197.22,119.08-191.81,62.7,3.31,116.2,56.14,119.61,118.84,5.53,101.62-99.54,167.9-189.45,121.03l-66.98,17.68ZM110.32,306.29l40-10.19c57.79,36.67,135.79,10.72,158.36-53.91,27.95-80.04-43.82-158.47-126.14-138.23-71.74,17.64-103.42,102.66-61.7,163.42l-10.52,38.91Z"/>
    <path class="st0" d="M160.71,148.15c2.04-.35,9.65-.44,11.46.11.88.27,2.07,1.44,2.66,2.18,2.26,2.84,10.28,22.59,11.7,26.95,1.13,3.45.68,4.27-1.05,7.29-1.92,3.36-7.48,8.41-8.64,11.23-1.29,3.15,2.69,8.08,4.53,10.76,8.96,13.1,22.14,24.11,36.8,30.34,2.81,1.19,6.13,3.35,8.81.9l11.76-14.55c2.46-1.97,5.96-.24,8.47.76,8.43,3.34,16.29,8.27,24.56,11.97,2.01,1.6,1.6,5.72,1.35,8.18-2.13,21.57-26.59,26.8-44.43,21.94-27.44-7.48-49.27-24.81-66.46-46.87-11.56-14.84-22.93-32.24-17.26-51.99,1.72-6.01,9.14-18.07,15.72-19.18Z"/>
  </g>
</svg>