<?xml version="1.0" encoding="UTF-8"?>
<svg id="Layer_1" xmlns="http://www.w3.org/2000/svg" version="1.1" viewBox="0 0 416 416">
  <!-- Generator: Adobe Illustrator 29.0.0, SVG Export Plug-In . SVG Version: 2.1.0 Build 186)  -->
  <defs>
    <style>
      .st0 {
        fill: #5d0de6;
      }
    </style>
  </defs>
  <path class="st0" d="M243.35,200.15c-16.08-8.05-31.72-17.38-47.89-25.22-2.28-1.1-5.76-3.15-8.3-3.01-4.15.23-7.14,3.84-7.57,7.84-1.82,17,1.37,37.17,0,54.5.57,5.12,4.66,8.23,9.74,7.36,16.29-8.48,33.16-16.34,49.19-25.36,3.85-2.17,8.02-3.75,8.48-8.84.27-2.97-1.15-5.72-3.65-7.27Z"/>
  <path class="st0" d="M208,0C93.12,0,0,93.12,0,208s93.12,208,208,208,208-93.12,208-208S322.88,0,208,0ZM330.91,239.8c-2.1,39.27-16.97,53.27-55.94,55-43.84,1.95-89.11-1.52-133.1,0-40.01-1.97-55.28-17.71-56.93-57.63-.86-21-.86-46.08,0-67.08.54-13.08,2.22-28.44,12.74-37.37,10.45-8.88,29.39-11.05,42.74-11.59,44.74-1.78,90.64,1.4,135.5,0,18.12,1.52,40.4,2.69,49.47,21.23,3.76,7.69,5.11,19.55,5.51,27.99.99,21.16,1.13,48.34,0,69.45Z"/>
</svg>